<svg xmlns="http://www.w3.org/2000/svg" width="1024" height="1024" viewBox="236 210 552 552">
<defs>
<clipPath id="icon-circle">
<circle cx="512" cy="486" r="276"/>
</clipPath>
</defs>
<g clip-path="url(#icon-circle)">
<path d="M 0.00 0.00 L 1024.00 0.00 L 1024.00 1024.00 L 0.00 1024.00 ZM 354.50 748.96 C356.70,749.41 427.35,749.82 511.50,749.88 C643.83,749.96 665.35,749.77 670.82,748.48 C691.83,743.53 706.98,727.02 709.92,705.88 C710.78,699.72 711.01,656.12 710.79,541.50 L 710.50 385.50 L 707.54 380.00 C705.32,375.88 693.93,363.78 662.04,331.68 C596.79,266.00 583.92,253.47 579.00,250.87 L 574.50 248.50 L 467.00 248.20 C389.55,247.98 357.82,248.22 353.50,249.04 C340.21,251.56 325.78,262.34 319.28,274.59 C318.48,276.10 317.79,277.20 317.18,278.34 C312.97,286.27 312.97,296.43 313.01,457.76 C313.01,470.23 313.01,483.61 313.01,497.96 C313.03,675.65 313.23,704.35 314.51,709.76 C319.22,729.75 334.67,744.90 354.50,748.96 ZM 673.50 726.84 L 668.50 729.50 L 514.00 729.69 L 502.69 729.70 C364.92,729.87 356.81,729.88 350.26,726.68 C349.67,726.40 349.10,726.08 348.45,725.74 C343.55,723.19 337.44,715.80 335.14,709.63 L 333.00 703.92 L 333.00 499.64 C333.00,486.02 333.00,473.27 333.00,461.35 C332.98,298.56 332.98,289.60 337.13,283.45 C337.67,282.64 338.29,281.88 338.99,280.83 C342.11,276.12 346.88,272.40 353.00,269.92 C355.93,268.73 374.93,268.42 468.72,268.00 L 580.94 267.50 L 581.50 357.50 L 584.11 363.00 C587.54,370.21 593.03,375.49 599.69,377.98 C604.78,379.89 607.42,380.00 648.05,380.00 L 691.02 380.00 L 690.50 706.50 L 688.20 711.50 C685.30,717.81 679.93,723.41 673.50,726.84 ZM 464.92 635.08 L 467.85 638.00 L 549.97 638.00 C554.59,638.00 558.96,638.00 563.10,638.00 C627.08,638.02 635.85,638.02 638.06,634.21 C638.56,633.36 638.72,632.32 639.10,631.05 C640.59,626.10 639.17,622.12 635.05,619.69 C632.43,618.14 625.45,618.00 551.05,618.00 L 546.06 618.00 C473.57,618.00 466.43,618.00 463.92,621.41 C463.59,621.86 463.34,622.37 463.03,622.94 C460.99,626.75 461.80,631.96 464.92,635.08 ZM 464.92 548.08 L 467.85 551.00 L 550.49 551.00 C605.26,551.00 633.78,550.65 635.06,549.97 C640.42,547.10 641.15,538.37 636.40,533.91 L 633.84 531.50 L 552.67 531.22 C508.03,531.06 470.45,531.19 469.16,531.51 C462.03,533.25 459.60,542.76 464.92,548.08 ZM 464.92 461.08 L 467.85 464.00 L 550.20 464.00 C555.21,464.00 559.93,464.00 564.36,464.00 C627.36,464.02 634.70,464.02 637.18,460.55 C637.68,459.85 637.98,459.00 638.51,457.99 C640.68,453.77 640.36,451.43 637.08,447.77 L 634.16 444.50 L 552.33 444.23 C492.18,444.04 469.76,444.27 467.71,445.12 C461.31,447.77 459.87,456.03 464.92,461.08 ZM 390.51 470.41 C392.85,472.94 393.20,473.00 406.02,473.00 C413.50,473.00 420.00,472.54 421.15,471.92 C424.63,470.06 426.00,464.89 426.00,453.60 C426.00,435.92 424.67,434.63 406.61,434.68 C388.13,434.73 387.33,435.61 387.81,455.26 C388.09,466.92 388.29,468.02 390.51,470.41 ZM 391.08 557.41 C394.04,559.90 394.64,560.00 406.94,560.00 C419.39,560.00 419.80,559.93 422.34,557.39 C425.67,554.06 426.27,550.68 425.84,537.51 C425.51,527.23 425.39,526.73 422.69,524.41 C420.03,522.12 419.21,522.00 406.49,522.00 C393.47,522.00 393.02,522.07 390.55,524.55 C388.06,527.03 388.00,527.43 388.00,540.96 L 388.00 554.82 ZM 393.75 641.37 C399.66,647.21 405.01,651.99 405.63,651.99 C407.80,652.01 445.00,612.32 445.00,609.99 C445.00,607.00 441.08,603.00 438.18,603.02 C436.01,603.03 432.65,606.10 420.64,619.02 C412.47,627.81 405.48,635.00 405.11,635.00 C404.74,635.00 401.54,632.08 398.00,628.50 C394.46,624.92 390.82,622.00 389.91,622.00 C387.23,622.00 383.00,625.95 383.00,628.45 C383.00,630.06 386.26,633.97 393.75,641.37 Z" fill="rgb(9,9,9)"/>
<path d="M 354.50 748.96 C334.67,744.90 319.22,729.75 314.51,709.76 C313.23,704.35 313.03,675.65 313.01,497.96 C313.01,483.61 313.01,470.23 313.01,457.76 C312.97,296.43 312.97,286.27 317.18,278.34 C317.79,277.20 318.48,276.10 319.28,274.59 C325.78,262.34 340.21,251.56 353.50,249.04 C357.82,248.22 389.55,247.98 467.00,248.20 L 574.50 248.50 L 579.00 250.87 C579.31,251.04 579.66,251.24 580.05,251.50 C575.89,249.43 574.01,249.66 576.77,251.96 C581.91,256.25 582.00,257.23 582.01,309.72 L 582.02 358.50 L 584.38 363.50 C584.56,363.89 584.75,364.28 584.96,364.66 C584.66,364.12 584.38,363.56 584.11,363.00 L 581.50 357.50 L 580.94 267.50 L 468.72 268.00 C374.93,268.42 355.93,268.73 353.00,269.92 C346.88,272.40 342.11,276.12 338.99,280.83 C338.29,281.88 337.67,282.64 337.13,283.45 C332.98,289.60 332.98,298.56 333.00,461.35 L 333.00 461.35 C333.00,473.27 333.00,486.02 333.00,499.64 L 333.00 703.92 L 335.14 709.63 C337.44,715.80 343.55,723.19 348.45,725.74 C349.10,726.08 349.67,726.40 350.26,726.68 C356.81,729.88 364.92,729.87 502.69,729.70 L 502.69 729.70 L 514.00 729.69 L 668.50 729.50 L 673.50 726.84 C679.93,723.41 685.30,717.81 688.20,711.50 L 690.50 706.50 L 691.02 380.00 L 701.70 380.00 L 705.10 382.32 C706.97,383.59 708.65,384.26 708.84,383.80 C709.01,383.38 708.94,382.78 708.58,381.94 L 710.50 385.50 L 710.79 541.50 C711.01,656.12 710.78,699.72 709.92,705.88 C706.98,727.02 691.83,743.53 670.82,748.48 C665.35,749.77 643.83,749.96 511.50,749.88 C427.35,749.82 356.70,749.41 354.50,748.96 ZM 464.92 635.08 C461.80,631.96 460.99,626.75 463.03,622.94 C463.34,622.37 463.59,621.86 463.92,621.41 C466.43,618.00 473.57,618.00 546.05,618.00 L 546.06 618.00 L 551.05 618.00 C625.45,618.00 632.43,618.14 635.05,619.69 C639.17,622.12 640.59,626.10 639.10,631.05 C638.72,632.32 638.56,633.36 638.06,634.21 C635.85,638.02 627.08,638.02 563.10,638.00 C558.96,638.00 554.59,638.00 549.97,638.00 L 467.85 638.00 ZM 464.92 548.08 C459.60,542.76 462.03,533.25 469.16,531.51 C470.45,531.19 508.03,531.06 552.67,531.22 L 633.84 531.50 L 636.40 533.91 C641.15,538.37 640.42,547.10 635.06,549.97 C633.78,550.65 605.26,551.00 550.49,551.00 L 467.85 551.00 ZM 464.92 461.08 C459.87,456.03 461.31,447.77 467.71,445.12 C469.76,444.27 492.18,444.04 552.33,444.23 L 634.16 444.50 L 637.08 447.77 C640.36,451.43 640.68,453.77 638.51,457.99 C637.98,459.00 637.68,459.85 637.18,460.55 C634.70,464.02 627.36,464.02 564.36,464.00 C559.93,464.00 555.21,464.00 550.20,464.00 L 467.85 464.00 ZM 390.51 470.41 C388.29,468.02 388.09,466.92 387.81,455.26 C387.33,435.61 388.13,434.73 406.61,434.68 C424.67,434.63 426.00,435.92 426.00,453.60 C426.00,464.89 424.63,470.06 421.15,471.92 C420.00,472.54 413.50,473.00 406.02,473.00 C393.20,473.00 392.85,472.94 390.51,470.41 ZM 391.08 557.41 L 388.00 554.82 L 388.00 540.96 C388.00,527.43 388.06,527.03 390.55,524.55 C393.02,522.07 393.47,522.00 406.49,522.00 C419.21,522.00 420.03,522.12 422.69,524.41 C425.39,526.73 425.51,527.23 425.84,537.51 C426.27,550.68 425.67,554.06 422.34,557.39 C419.80,559.93 419.39,560.00 406.94,560.00 C394.64,560.00 394.04,559.90 391.08,557.41 ZM 707.76 380.40 C705.95,377.50 701.94,372.76 694.72,365.06 C702.65,373.43 706.37,377.83 707.54,380.00 ZM 600.51 378.28 C605.03,379.84 609.52,379.99 648.05,380.00 C609.65,380.00 605.19,379.90 600.51,378.28 Z" fill="rgb(55,55,55)"/>
<path d="M 393.75 641.37 C386.26,633.97 383.00,630.06 383.00,628.45 C383.00,625.95 387.23,622.00 389.91,622.00 C390.82,622.00 394.46,624.92 398.00,628.50 C401.54,632.08 404.74,635.00 405.11,635.00 C405.48,635.00 412.47,627.81 420.64,619.02 C432.65,606.10 436.01,603.03 438.18,603.02 C441.08,603.00 445.00,607.00 445.00,609.99 C445.00,612.32 407.80,652.01 405.63,651.99 C405.01,651.99 399.66,647.21 393.75,641.37 ZM 705.10 382.32 L 701.70 380.00 L 653.39 380.00 C607.40,380.00 604.82,379.90 599.69,377.98 C593.17,375.55 587.55,370.23 584.38,363.50 L 582.02 358.50 L 582.01 309.72 C582.00,257.23 581.91,256.25 576.77,251.96 C573.95,249.61 575.96,249.42 580.30,251.63 C583.83,253.43 598.95,268.22 661.61,331.18 C700.07,369.82 710.02,380.91 708.84,383.80 C708.65,384.26 706.97,383.59 705.10,382.32 Z" fill="rgb(221,175,104)"/>
</g>
</svg>